<svg width="67.25" height="24" viewBox="0 0 283 101" fill="none" xmlns="http://www.w3.org/2000/svg">
<g clip-path="url(#clip0_3119_5278)">
<mask id="mask0_3119_5278" style="mask-type:luminance" maskUnits="userSpaceOnUse" x="55" y="13" width="238" height="73">
<path d="M292.782 13H55V86H292.782V13Z" fill="white"/>
</mask>
<g mask="url(#mask0_3119_5278)">
<path d="M82.9783 39.2443C82.9783 37.5063 82.3473 35.9904 81.0854 34.6919C79.825 33.395 77.9212 32.7473 75.3755 32.7473C72.8034 32.7473 70.8872 33.3593 69.6268 34.5816C68.3664 35.8056 67.7354 37.396 67.7354 39.3546C67.7354 41.5803 68.3975 43.2748 69.7185 44.4382C71.041 45.6 72.8889 46.1809 75.2652 46.1809C77.8606 46.1809 79.7939 45.5813 81.0683 44.3823C82.3396 43.1832 82.9783 41.47 82.9783 39.2443ZM85.8053 71.2354C85.8053 69.356 85.1743 67.8619 83.9139 66.7513C82.6535 65.6408 80.4187 65.0848 77.2109 65.0848H74.6031C71.6658 65.0848 69.5786 65.7449 68.3415 67.062C67.1044 68.3806 66.4874 70.0767 66.4874 72.1502C66.4874 74.2983 67.2956 75.9571 68.9103 77.1298C70.5266 78.3009 72.6698 78.8864 75.3382 78.8864C82.3163 78.8864 85.8053 76.3345 85.8053 71.2354ZM92.0855 33.1139H89.846L86.3197 32.783C88.253 35.133 89.2213 37.5187 89.2213 39.9417C89.2213 43.2686 88.0153 46.0333 85.6032 48.2357C83.1912 50.4382 79.8918 51.5394 75.705 51.5394H71.4824C69.4247 52.886 68.3975 54.1829 68.3975 55.4301C68.3975 56.7037 68.8015 57.6512 69.6097 58.2756C70.4163 58.9 71.7637 59.2106 73.6489 59.2106H77.2109C82.5727 59.2106 86.4534 60.3491 88.8529 62.6245C91.2525 64.8999 92.4523 67.7764 92.4523 71.2509C92.4523 75.165 90.923 78.3956 87.863 80.9397C84.8013 83.4854 80.7854 84.7575 75.8153 84.7575C70.5764 84.7575 66.6024 83.5771 63.8983 81.2162C61.1925 78.8538 59.8389 75.9975 59.8389 72.6457C59.8389 68.2409 62.0551 64.9139 66.4874 62.6618C63.2051 61.2919 61.5655 59.2106 61.5655 56.4211C61.5655 53.5834 63.303 51.1728 66.7812 49.191C63.23 46.7928 61.4552 43.4892 61.4552 39.28C61.4552 35.7574 62.7093 32.8933 65.2193 30.6909C67.7292 28.4884 71.2369 27.3872 75.7423 27.3872C77.0649 27.3872 80.271 27.5845 85.3655 27.9743H92.0855V33.1139Z" fill="black"/>
<path d="M122.238 52.3843V46.5117C122.238 41.4219 121.485 37.9039 119.98 35.9593C118.473 34.0132 116.546 33.0409 114.194 33.0409C111.844 33.0409 109.922 34.0132 108.43 35.9593C106.935 37.9039 106.189 41.4219 106.189 46.5117V52.3843C106.189 57.4741 106.935 60.9921 108.43 62.9367C109.922 64.8828 111.844 65.8551 114.194 65.8551C116.546 65.8551 118.473 64.8828 119.98 62.9367C121.485 60.9921 122.238 57.4741 122.238 52.3843ZM128.702 52.3843C128.702 58.9667 127.348 63.836 124.644 66.9936C121.938 70.1497 118.456 71.7278 114.194 71.7278C109.934 71.7278 106.458 70.1497 103.764 66.9936C101.071 63.836 99.7236 58.9667 99.7236 52.3843V46.5117C99.7236 39.9293 101.071 35.06 103.764 31.9024C106.458 28.7463 109.934 27.1682 114.194 27.1682C118.456 27.1682 121.938 28.7463 124.644 31.9024C127.348 35.06 128.702 39.9293 128.702 46.5117V52.3843Z" fill="black"/>
<path d="M166.716 70.9946H139.539V65.4885H149.895V18.5075H142.514V13.0015H156.359V65.4885H166.716V70.9946Z" fill="black"/>
<path d="M200.102 52.3841V46.5115C200.102 41.4217 199.348 37.9037 197.844 35.9591C196.336 34.0129 194.409 33.0406 192.059 33.0406C189.708 33.0406 187.786 34.0129 186.294 35.9591C184.798 37.9037 184.052 41.4217 184.052 46.5115V52.3841C184.052 57.4739 184.798 60.9919 186.294 62.9365C187.786 64.8826 189.708 65.8549 192.059 65.8549C194.409 65.8549 196.336 64.8826 197.844 62.9365C199.348 60.9919 200.102 57.4739 200.102 52.3841ZM206.566 52.3841C206.566 58.9665 205.212 63.8358 202.508 66.9934C199.802 70.1495 196.319 71.7275 192.059 71.7275C187.798 71.7275 184.321 70.1495 181.628 66.9934C178.935 63.8358 177.589 58.9665 177.589 52.3841V46.5115C177.589 39.929 178.935 35.0598 181.628 31.9021C184.321 28.7461 187.798 27.1681 192.059 27.1681C196.319 27.1681 199.802 28.7461 202.508 31.9021C205.212 35.0598 206.566 39.929 206.566 46.5115V52.3841Z" fill="black"/>
<path d="M234.696 70.9946H227.278L219.822 48.4951C217.251 40.7866 215.843 34.9745 215.597 31.0605L215.414 27.9758H221.878L222.063 31.0605C222.283 34.7804 223.506 40.2849 225.735 47.5771L230.986 64.9014L236.239 47.5771C238.466 40.2849 239.691 34.7804 239.912 31.0605L240.095 27.9758H246.559L246.375 31.0605C246.13 34.9745 244.723 40.7866 242.151 48.4951L234.696 70.9946Z" fill="black"/>
<path d="M276.458 60.9005V51.0268H270.288C267.203 51.0268 264.877 51.7491 263.308 53.1935C261.742 54.6365 260.959 56.5826 260.959 59.0289C260.959 63.5813 263.2 65.8552 267.68 65.8552C271.205 65.8552 274.131 64.2041 276.458 60.9005ZM282.922 70.9947H276.458V66.1487C273.715 69.8686 270.251 71.7293 266.064 71.7293C262.562 71.7293 259.729 70.5241 257.561 68.1135C255.395 65.7029 254.312 62.6758 254.312 59.0289C254.312 55.2857 255.664 52.1467 258.369 49.6134C261.075 47.0817 265.047 45.8159 270.288 45.8159H276.458V41.1532C276.458 35.7465 273.887 33.0409 268.745 33.0409C264.95 33.0409 262.109 34.7183 260.225 38.0701L255.339 34.3999C258.719 29.5788 263.2 27.1698 268.782 27.1698C272.919 27.1698 276.31 28.3502 278.955 30.7111C281.599 33.0719 282.922 36.5542 282.922 41.1532V70.9947Z" fill="black"/>
</g>
<path d="M29.8966 39.3686C32.2307 39.3686 34.1231 37.4952 34.1231 35.1842C34.1231 32.8734 32.2307 31 29.8966 31C27.5623 31 25.6699 32.8734 25.6699 35.1842C25.6699 37.4952 27.5623 39.3686 29.8966 39.3686Z" fill="black" fill-opacity="0.95" stroke="black" stroke-width="3"/>
<path d="M22.2891 54.0157C24.6233 54.0157 26.5156 52.1424 26.5156 49.8315C26.5156 47.5207 24.6233 45.6472 22.2891 45.6472C19.9549 45.6472 18.0625 47.5207 18.0625 49.8315C18.0625 52.1424 19.9549 54.0157 22.2891 54.0157Z" fill="black" stroke="black" stroke-width="3"/>
<path d="M38.7734 54.0157C41.1077 54.0157 42.9999 52.1424 42.9999 49.8315C42.9999 47.5207 41.1077 45.6472 38.7734 45.6472C36.4391 45.6472 34.5469 47.5207 34.5469 49.8315C34.5469 52.1424 36.4391 54.0157 38.7734 54.0157Z" fill="black" stroke="black" stroke-width="3"/>
<path d="M29.8966 69.0816C32.2307 69.0816 34.1231 67.2083 34.1231 64.8974C34.1231 62.5864 32.2307 60.7131 29.8966 60.7131C27.5623 60.7131 25.6699 62.5864 25.6699 64.8974C25.6699 67.2083 27.5623 69.0816 29.8966 69.0816Z" fill="black" stroke="black" stroke-width="3"/>
<path d="M14.2578 69.5C16.5921 69.5 18.4843 67.6265 18.4843 65.3157C18.4843 63.0048 16.5921 61.1313 14.2578 61.1313C11.9235 61.1313 10.0312 63.0048 10.0312 65.3157C10.0312 67.6265 11.9235 69.5 14.2578 69.5Z" fill="black" stroke="black" stroke-width="3"/>
<path d="M6.22653 54.0157C8.56077 54.0157 10.4531 52.1424 10.4531 49.8315C10.4531 47.5207 8.56077 45.6472 6.22653 45.6472C3.89228 45.6472 2 47.5207 2 49.8315C2 52.1424 3.89228 54.0157 6.22653 54.0157Z" fill="black" stroke="black" stroke-width="3"/>
<path d="M14.2578 39.3686C16.5921 39.3686 18.4843 37.4952 18.4843 35.1842C18.4843 32.8734 16.5921 31 14.2578 31C11.9235 31 10.0312 32.8734 10.0312 35.1842C10.0312 37.4952 11.9235 39.3686 14.2578 39.3686Z" fill="black" stroke="black" stroke-width="3"/>
<path d="M28.1464 39.1635L23.9199 46.2768" stroke="black" stroke-width="3"/>
<path d="M20.1231 53.8016L15.8965 61.3335" stroke="black" stroke-width="3"/>
<path d="M34.9697 49.832H26.5166" stroke="black" stroke-width="3"/>
<path d="M18.4853 49.832H10.0322" stroke="black" stroke-width="3"/>
<path d="M15.8955 38.7448L20.0104 45.9219" stroke="black" stroke-width="3"/>
<path d="M23.9268 53.8105L28.0417 60.9877" stroke="black" stroke-width="3"/>
</g>
<defs>
<clipPath id="clip0_3119_5278">
<rect width="283" height="101" fill="white"/>
</clipPath>
</defs>
</svg>
