<svg width="24.0" height="24" viewBox="0 0 45 45" fill="none" xmlns="http://www.w3.org/2000/svg">
<path d="M29.8966 11.3686C32.2307 11.3686 34.1231 9.49515 34.1231 7.18421C34.1231 4.8734 32.2307 3 29.8966 3C27.5623 3 25.6699 4.8734 25.6699 7.18421C25.6699 9.49515 27.5623 11.3686 29.8966 11.3686Z" fill="black" fill-opacity="0.95" stroke="black" stroke-width="3"/>
<path d="M22.2891 26.0157C24.6233 26.0157 26.5156 24.1424 26.5156 21.8315C26.5156 19.5207 24.6233 17.6472 22.2891 17.6472C19.9549 17.6472 18.0625 19.5207 18.0625 21.8315C18.0625 24.1424 19.9549 26.0157 22.2891 26.0157Z" fill="black" stroke="black" stroke-width="3"/>
<path d="M38.7734 26.0157C41.1077 26.0157 42.9999 24.1424 42.9999 21.8315C42.9999 19.5207 41.1077 17.6472 38.7734 17.6472C36.4391 17.6472 34.5469 19.5207 34.5469 21.8315C34.5469 24.1424 36.4391 26.0157 38.7734 26.0157Z" fill="black" stroke="black" stroke-width="3"/>
<path d="M29.8966 41.0816C32.2307 41.0816 34.1231 39.2083 34.1231 36.8974C34.1231 34.5864 32.2307 32.7131 29.8966 32.7131C27.5623 32.7131 25.6699 34.5864 25.6699 36.8974C25.6699 39.2083 27.5623 41.0816 29.8966 41.0816Z" fill="black" stroke="black" stroke-width="3"/>
<path d="M14.2578 41.5C16.5921 41.5 18.4843 39.6265 18.4843 37.3157C18.4843 35.0048 16.5921 33.1313 14.2578 33.1313C11.9235 33.1313 10.0312 35.0048 10.0312 37.3157C10.0312 39.6265 11.9235 41.5 14.2578 41.5Z" fill="black" stroke="black" stroke-width="3"/>
<path d="M6.22653 26.0157C8.56077 26.0157 10.4531 24.1424 10.4531 21.8315C10.4531 19.5207 8.56077 17.6472 6.22653 17.6472C3.89228 17.6472 2 19.5207 2 21.8315C2 24.1424 3.89228 26.0157 6.22653 26.0157Z" fill="black" stroke="black" stroke-width="3"/>
<path d="M14.2578 11.3686C16.5921 11.3686 18.4843 9.49515 18.4843 7.18421C18.4843 4.8734 16.5921 3 14.2578 3C11.9235 3 10.0312 4.8734 10.0312 7.18421C10.0312 9.49515 11.9235 11.3686 14.2578 11.3686Z" fill="black" stroke="black" stroke-width="3"/>
<path d="M28.1464 11.1635L23.9199 18.2768" stroke="black" stroke-width="3"/>
<path d="M20.1231 25.8016L15.8965 33.3335" stroke="black" stroke-width="3"/>
<path d="M34.9697 21.832H26.5166" stroke="black" stroke-width="3"/>
<path d="M18.4853 21.832H10.0322" stroke="black" stroke-width="3"/>
<path d="M15.8955 10.7448L20.0104 17.9219" stroke="black" stroke-width="3"/>
<path d="M23.9268 25.8105L28.0417 32.9877" stroke="black" stroke-width="3"/>
</svg>
