<svg width="1252" height="481" viewBox="0 0 1252 481" fill="none" xmlns="http://www.w3.org/2000/svg">
<style>
:root { --illustration-ink: #F9F9F9; }
@media (prefers-color-scheme: dark) {
  :root { --illustration-ink: #F9F9F9; }
}
</style>
<path d="M169.914 81.182V80.7087C169.914 79.7621 170.384 78.8154 171.09 77.6321L172.5 75.2655L171.325 73.1355C170.62 71.9522 170.149 70.7689 170.149 70.0589V69.5856H171.56V70.0589C171.56 71.0055 172.03 71.7155 172.5 72.6622L173.441 74.3188L174.381 72.6622C174.851 71.7155 175.087 71.0055 175.322 70.0589V69.5856H176.732V70.0589C176.732 71.0055 176.262 71.9522 175.557 73.1355L174.381 75.2655L175.792 77.6321C176.497 78.8154 176.967 79.9987 176.967 80.7087V81.182H175.557V80.7087C175.557 79.7621 175.087 79.0521 174.616 78.1054L173.441 76.2121L172.265 78.1054C171.795 79.0521 171.56 79.7621 171.325 80.7087V81.182H169.914Z" fill="#F9F9F9"/>
<path d="M178.613 446.116C178.848 445.643 179.084 445.169 179.084 444.459H174.852V443.276H180.259V444.459C180.259 445.169 180.024 446.116 179.554 446.826L176.497 452.269C176.262 452.742 176.027 453.216 176.027 453.926H180.259V455.109H174.616V453.926C174.616 453.216 174.852 452.269 175.322 451.559L178.613 446.116Z" fill="#F9F9F9"/>
<path d="M586.762 457.239H585.351V452.269L584.176 449.902C583.47 448.482 583 447.062 583 445.879V445.406H584.411V445.879C584.411 446.826 584.646 448.009 585.351 449.192L586.292 451.086L587.232 449.192C587.937 448.009 588.173 446.826 588.173 445.879V445.406H589.583V445.879C589.583 447.062 589.113 448.246 588.408 449.902L587.232 452.269V457.239H586.762Z" fill="#F9F9F9"/>
<path d="M192.485 245.189C192.485 245.899 192.25 246.609 191.78 247.319C191.309 247.793 190.604 248.266 189.664 248.266C188.253 248.266 187.077 247.556 186.372 246.373L187.313 245.663C187.783 246.609 188.488 247.082 189.664 247.082C190.134 247.082 190.604 246.846 190.839 246.609C191.074 246.373 191.309 245.899 191.309 245.426C191.309 244.953 191.074 244.479 190.369 244.006L187.783 241.639C187.077 240.929 186.842 240.219 186.842 239.036C186.842 238.326 187.077 237.616 187.548 236.906C188.018 236.433 188.723 236.196 189.664 236.196C190.839 236.196 191.78 236.669 192.485 237.853L191.544 238.563C191.074 237.853 190.604 237.379 189.664 237.379C189.193 237.379 188.723 237.616 188.488 237.853C188.253 238.089 188.018 238.563 188.018 239.036C188.018 239.509 188.253 240.219 188.723 240.456L191.309 242.823C192.25 243.533 192.485 244.479 192.485 245.189Z" fill="#43B649"/>
<path d="M194.365 244.479V239.746C194.365 238.563 194.6 237.616 195.071 236.906C195.541 236.196 196.246 235.959 197.187 235.959C198.127 235.959 198.832 236.196 199.303 236.906C199.773 237.616 200.008 238.563 200.008 239.746V244.479C200.008 245.663 199.773 246.609 199.303 247.319C198.832 248.029 198.127 248.266 197.187 248.266C196.246 248.266 195.541 248.029 195.071 247.319C194.836 246.609 194.365 245.663 194.365 244.479ZM195.776 244.479C195.776 245.426 196.011 246.136 196.246 246.373C196.481 246.846 196.951 246.846 197.422 246.846C197.892 246.846 198.362 246.609 198.597 246.373C198.832 245.899 199.067 245.426 199.067 244.479V239.746C199.067 238.799 198.832 238.089 198.597 237.853C198.362 237.379 197.892 237.379 197.422 237.379C196.951 237.379 196.481 237.616 196.246 237.853C196.011 238.326 195.776 238.799 195.776 239.746V244.479Z" fill="#43B649"/>
<path d="M208.002 244.479C208.002 245.663 207.767 246.609 207.296 247.319C206.826 247.793 206.121 248.266 205.416 248.266C204.71 248.266 204.005 248.029 203.535 247.319C203.064 246.846 202.829 245.899 202.829 244.479V236.196H204.24V244.479C204.24 245.426 204.475 246.136 204.71 246.373C204.945 246.609 205.416 246.846 205.886 246.846C206.356 246.846 206.591 246.609 207.061 246.373C207.296 246.136 207.532 245.426 207.532 244.479V236.196H208.942V244.479H208.002Z" fill="#43B649"/>
<path d="M213.175 242.586H211.764V248.029H210.354V236.196H212.94C213.88 236.196 214.821 236.433 215.291 237.143C215.761 237.616 215.996 238.563 215.996 239.509C215.996 240.219 215.761 240.929 215.526 241.403C215.291 241.876 214.821 242.349 214.35 242.349L214.585 242.586C215.526 244.006 215.996 245.663 216.231 247.556V248.029H214.821V247.556C214.821 245.899 214.115 244.243 213.175 242.823V242.586ZM211.764 241.403H212.94C213.645 241.403 213.88 241.166 214.35 240.929C214.585 240.456 214.821 239.983 214.821 239.273C214.821 238.563 214.585 238.089 214.35 237.616C214.115 237.379 213.645 237.143 212.94 237.143H211.764V241.403Z" fill="#43B649"/>
<path d="M224.225 246.373C223.52 247.556 222.579 248.266 221.169 248.266C220.228 248.266 219.523 248.029 219.053 247.319C218.583 246.846 218.112 245.663 218.112 244.243V240.219C218.112 238.799 218.347 237.616 219.053 237.143C219.523 236.433 220.228 236.196 221.169 236.196C222.579 236.196 223.52 236.906 223.99 238.089L222.814 238.799C222.344 237.853 221.874 237.379 220.934 237.379C220.463 237.379 219.993 237.616 219.758 237.853C219.523 238.326 219.288 239.036 219.288 240.219V244.243C219.288 245.426 219.523 246.136 219.758 246.609C219.993 247.083 220.463 247.082 220.934 247.082C221.874 247.082 222.344 246.609 222.814 245.663L224.225 246.373Z" fill="#43B649"/>
<path d="M231.75 248.029H226.342V236.196H231.75V237.38H227.518V241.166H230.574V242.349H227.518V246.846H231.75V248.029Z" fill="#43B649"/>
<path d="M1113.4 246.373C1113.4 247.083 1113.17 247.792 1112.7 248.502C1112.23 248.976 1111.52 249.449 1110.58 249.449C1109.17 249.449 1107.99 248.739 1107.29 247.556L1108.23 246.846C1108.7 247.792 1109.41 248.266 1110.58 248.266C1111.05 248.266 1111.52 248.029 1111.76 247.792C1111.99 247.556 1112.23 247.082 1112.23 246.609C1112.23 246.136 1111.99 245.663 1111.29 245.189L1108.7 242.823C1107.99 242.113 1107.76 241.403 1107.76 240.219C1107.76 239.509 1107.99 238.799 1108.46 238.089C1108.94 237.616 1109.64 237.379 1110.58 237.379C1111.76 237.379 1112.7 237.853 1113.4 239.036L1112.46 239.746C1111.99 239.036 1111.52 238.563 1110.58 238.563C1110.11 238.563 1109.64 238.799 1109.41 239.036C1109.17 239.273 1108.94 239.746 1108.94 240.219C1108.94 240.693 1109.17 241.403 1109.64 241.639L1112.23 244.006C1112.93 244.716 1113.4 245.426 1113.4 246.373Z" fill="#F9F9F9"/>
<path d="M1116.93 249.212H1115.52V237.379H1118.11C1119.05 237.379 1119.99 237.616 1120.46 238.326C1120.93 238.799 1121.16 239.746 1121.16 240.693C1121.16 241.639 1120.93 242.586 1120.22 243.059C1119.52 243.533 1118.81 244.006 1117.87 244.006H1116.69V249.212H1116.93ZM1116.93 242.586H1118.11C1118.81 242.586 1119.05 242.349 1119.52 242.113C1119.75 241.876 1119.99 241.166 1119.99 240.456C1119.99 239.746 1119.75 239.273 1119.52 238.799C1119.28 238.563 1118.81 238.326 1118.11 238.326H1116.93V242.586Z" fill="#F9F9F9"/>
<path d="M1124.22 248.502V249.212H1122.81V248.502C1122.81 247.319 1123.04 245.426 1123.75 242.823L1125.16 237.379H1126.57L1127.98 242.823C1128.68 245.426 1128.92 247.319 1128.92 248.502V249.212H1127.51V248.502C1127.51 248.029 1127.51 247.319 1127.27 246.373H1124.22C1124.22 247.319 1124.22 247.792 1124.22 248.502ZM1125.86 239.509L1124.92 243.533C1124.69 244.243 1124.69 244.716 1124.45 245.189H1127.27C1127.27 244.716 1127.04 244.006 1126.8 243.533L1125.86 239.509Z" fill="#F9F9F9"/>
<path d="M1137.15 247.319C1136.44 248.502 1135.5 249.212 1134.09 249.212C1133.15 249.212 1132.45 248.976 1131.98 248.266C1131.51 247.792 1131.04 246.609 1131.04 245.189V241.166C1131.04 239.746 1131.27 238.563 1131.98 238.089C1132.45 237.379 1133.15 237.143 1134.09 237.143C1135.5 237.143 1136.44 237.853 1136.91 239.036L1135.74 239.746C1135.27 238.799 1134.8 238.326 1133.86 238.326C1133.39 238.326 1132.92 238.563 1132.68 238.799C1132.45 239.273 1132.21 239.983 1132.21 241.166V245.189C1132.21 246.372 1132.45 247.082 1132.68 247.556C1132.92 248.029 1133.39 248.029 1133.86 248.029C1134.8 248.029 1135.27 247.556 1135.74 246.609L1137.15 247.319Z" fill="#F9F9F9"/>
<path d="M1144.67 249.212H1139.26V237.379H1144.67V238.326H1140.44V242.349H1143.5V243.296H1140.44V248.029H1144.67V249.212Z" fill="#F9F9F9"/>
<path d="M750.396 265.306L681.98 243.059L750.396 220.813" stroke="#F9F9F9" stroke-width="2.5" stroke-miterlimit="10" stroke-linecap="round" stroke-linejoin="round"/>
<path d="M741.461 272.169C744.988 262.702 746.868 252.289 746.868 241.639C746.868 230.753 744.988 220.576 741.461 211.11" stroke="#F9F9F9" stroke-width="2.5" stroke-miterlimit="10" stroke-linecap="round" stroke-linejoin="round"/>
<path d="M1226.02 199.987C1229.55 190.52 1231.43 180.107 1231.43 169.457C1231.43 158.571 1229.55 148.394 1226.02 138.928" stroke="#F9F9F9" stroke-width="2.5" stroke-miterlimit="10" stroke-linecap="round" stroke-linejoin="round"/>
<path d="M1222.96 345.297C1226.49 335.831 1228.37 325.418 1228.37 314.768C1228.37 303.881 1226.49 293.705 1222.96 284.238" stroke="#F9F9F9" stroke-width="2.5" stroke-miterlimit="10" stroke-linecap="round" stroke-linejoin="round"/>
<path d="M1114.58 53.7292C1117.56 53.7292 1119.98 51.2922 1119.98 48.286C1119.98 45.2797 1117.56 42.8427 1114.58 42.8427C1111.59 42.8427 1109.17 45.2797 1109.17 48.286C1109.17 51.2922 1111.59 53.7292 1114.58 53.7292Z" stroke="#F9F9F9" stroke-width="2.5" stroke-miterlimit="10" stroke-linecap="round" stroke-linejoin="round"/>
<path d="M1136.21 53.7292C1139.19 53.7292 1141.62 51.2922 1141.62 48.286C1141.62 45.2797 1139.19 42.8427 1136.21 42.8427C1133.22 42.8427 1130.8 45.2797 1130.8 48.286C1130.8 51.2922 1133.22 53.7292 1136.21 53.7292Z" stroke="#F9F9F9" stroke-width="2.5" stroke-miterlimit="10" stroke-linecap="round" stroke-linejoin="round"/>
<path d="M1038.64 250.159C1041.62 250.159 1044.05 247.722 1044.05 244.716C1044.05 241.71 1041.62 239.273 1038.64 239.273C1035.65 239.273 1033.23 241.71 1033.23 244.716C1033.23 247.722 1035.65 250.159 1038.64 250.159Z" stroke="#F9F9F9" stroke-width="2.5" stroke-miterlimit="10" stroke-linecap="round" stroke-linejoin="round"/>
<path d="M1157.84 53.7292C1160.82 53.7292 1163.25 51.2922 1163.25 48.286C1163.25 45.2797 1160.82 42.8427 1157.84 42.8427C1154.85 42.8427 1152.43 45.2797 1152.43 48.286C1152.43 51.2922 1154.85 53.7292 1157.84 53.7292Z" stroke="#F9F9F9" stroke-width="2.5" stroke-miterlimit="10" stroke-linecap="round" stroke-linejoin="round"/>
<path d="M1222.96 53.7292C1225.95 53.7292 1228.37 51.2922 1228.37 48.286C1228.37 45.2797 1225.95 42.8427 1222.96 42.8427C1219.98 42.8427 1217.56 45.2797 1217.56 48.286C1217.56 51.2922 1219.98 53.7292 1222.96 53.7292Z" stroke="#F9F9F9" stroke-width="2.5" stroke-miterlimit="10" stroke-linecap="round" stroke-linejoin="round"/>
<path d="M1042.87 102.955C1045.86 102.955 1048.28 100.518 1048.28 97.5118C1048.28 94.5056 1045.86 92.0685 1042.87 92.0685C1039.88 92.0685 1037.46 94.5056 1037.46 97.5118C1037.46 100.518 1039.88 102.955 1042.87 102.955Z" stroke="#F9F9F9" stroke-width="2.5" stroke-miterlimit="10" stroke-linecap="round" stroke-linejoin="round"/>
<path d="M845.616 102.955C848.602 102.955 851.023 100.518 851.023 97.5117C851.023 94.5055 848.602 92.0685 845.616 92.0685C842.629 92.0685 840.208 94.5055 840.208 97.5117C840.208 100.518 842.629 102.955 845.616 102.955Z" stroke="#F9F9F9" stroke-width="2.5" stroke-miterlimit="10" stroke-linecap="round" stroke-linejoin="round"/>
<path d="M845.616 120.231C848.602 120.231 851.023 117.794 851.023 114.788C851.023 111.782 848.602 109.345 845.616 109.345C842.629 109.345 840.208 111.782 840.208 114.788C840.208 117.794 842.629 120.231 845.616 120.231Z" stroke="#F9F9F9" stroke-width="2.5" stroke-miterlimit="10" stroke-linecap="round" stroke-linejoin="round"/>
<path d="M845.616 137.744C848.602 137.744 851.023 135.307 851.023 132.301C851.023 129.295 848.602 126.858 845.616 126.858C842.629 126.858 840.208 129.295 840.208 132.301C840.208 135.307 842.629 137.744 845.616 137.744Z" stroke="#F9F9F9" stroke-width="2.5" stroke-miterlimit="10" stroke-linecap="round" stroke-linejoin="round"/>
<path d="M123.599 49.4694C126.585 49.4694 129.006 47.0323 129.006 44.0261C129.006 41.0199 126.585 38.5829 123.599 38.5829C120.613 38.5829 118.192 41.0199 118.192 44.0261C118.192 47.0323 120.613 49.4694 123.599 49.4694Z" stroke="#F9F9F9" stroke-width="2.5" stroke-miterlimit="10" stroke-linecap="round" stroke-linejoin="round"/>
<path d="M302.516 467.415C305.502 467.415 307.923 464.978 307.923 461.972C307.923 458.966 305.502 456.529 302.516 456.529C299.529 456.529 297.108 458.966 297.108 461.972C297.108 464.978 299.529 467.415 302.516 467.415Z" stroke="#F9F9F9" stroke-width="2.5" stroke-miterlimit="10" stroke-linecap="round" stroke-linejoin="round"/>
<path d="M322.97 456.529C325.956 456.529 328.377 454.092 328.377 451.086C328.377 448.08 325.956 445.643 322.97 445.643C319.983 445.643 317.562 448.08 317.562 451.086C317.562 454.092 319.983 456.529 322.97 456.529Z" stroke="#F9F9F9" stroke-width="2.5" stroke-miterlimit="10" stroke-linecap="round" stroke-linejoin="round"/>
<path d="M343.659 467.415C346.646 467.415 349.067 464.978 349.067 461.972C349.067 458.966 346.646 456.529 343.659 456.529C340.673 456.529 338.252 458.966 338.252 461.972C338.252 464.978 340.673 467.415 343.659 467.415Z" stroke="#EA4335" stroke-width="2.5" stroke-miterlimit="10" stroke-linecap="round" stroke-linejoin="round"/>
<path d="M416.309 60.3558C416.309 61.3024 338.018 65.799 334.961 65.799C331.905 65.799 329.554 63.4324 329.554 60.3558C329.554 57.2792 331.905 54.9125 334.961 54.9125C338.018 54.9125 416.309 59.4091 416.309 60.3558Z" stroke="#EA4335" stroke-width="2.5" stroke-miterlimit="10" stroke-linecap="round" stroke-linejoin="round"/>
<path d="M588.643 39.5295C589.583 39.5295 594.051 118.338 594.051 121.415C594.051 124.491 591.699 126.858 588.643 126.858C585.587 126.858 583.236 124.491 583.236 121.415C583.236 118.338 587.703 39.5295 588.643 39.5295Z" stroke="#F9F9F9" stroke-width="2.5" stroke-miterlimit="10" stroke-linecap="round" stroke-linejoin="round"/>
<path d="M123.599 448.719C126.585 448.719 129.006 446.282 129.006 443.276C129.006 440.269 126.585 437.832 123.599 437.832C120.613 437.832 118.192 440.269 118.192 443.276C118.192 446.282 120.613 448.719 123.599 448.719Z" stroke="#F9F9F9" stroke-width="2.5" stroke-miterlimit="10" stroke-linecap="round" stroke-linejoin="round"/>
<path d="M95.855 349.557C95.855 350.977 94.6795 352.161 93.2689 352.161C91.8582 352.161 90.6827 350.977 90.6827 349.557C90.6827 348.137 91.8582 346.954 93.2689 346.954C94.6795 346.954 95.855 348.137 95.855 349.557Z" stroke="#F9F9F9" stroke-width="2.5" stroke-miterlimit="10" stroke-linecap="round" stroke-linejoin="round"/>
<path d="M95.855 385.53C95.855 386.95 94.6795 388.133 93.2689 388.133C91.8582 388.133 90.6827 386.95 90.6827 385.53C90.6827 384.11 91.8582 382.927 93.2689 382.927C94.6795 382.927 95.855 384.11 95.855 385.53Z" stroke="#F9F9F9" stroke-width="2.5" stroke-miterlimit="10" stroke-linecap="round" stroke-linejoin="round"/>
<path d="M95.855 421.503C95.855 422.923 94.6795 424.106 93.2689 424.106C91.8582 424.106 90.6827 422.923 90.6827 421.503C90.6827 420.083 91.8582 418.899 93.2689 418.899C94.6795 418.899 95.855 420.083 95.855 421.503Z" stroke="#F9F9F9" stroke-width="2.5" stroke-miterlimit="10" stroke-linecap="round" stroke-linejoin="round"/>
<path d="M94.2101 49.4694C91.1537 49.4694 88.8026 47.1027 88.8026 44.0261C88.8026 40.9495 91.1537 38.5829 94.2101 38.5829" stroke="#F9F9F9" stroke-width="2.5" stroke-miterlimit="10" stroke-linecap="round" stroke-linejoin="round"/>
<path d="M99.6178 443.276C99.6178 446.352 97.2668 448.719 94.2104 448.719C91.154 448.719 88.8029 446.352 88.8029 443.276" stroke="#F9F9F9" stroke-width="2.5" stroke-miterlimit="10" stroke-linecap="round" stroke-linejoin="round"/>
<path d="M651.651 243.533H633.077" stroke="#4285F4" stroke-width="2.5" stroke-miterlimit="10" stroke-linecap="round" stroke-linejoin="round"/>
<path d="M548.439 243.533H530.101" stroke="#4285F4" stroke-width="2.5" stroke-miterlimit="10" stroke-linecap="round" stroke-linejoin="round"/>
<path d="M474.144 243.059H262.782" stroke="#43B649" stroke-width="2.5" stroke-linecap="round" stroke-linejoin="round"/>
<path d="M472.264 236.669L483.549 243.059L472.264 249.686V236.669Z" fill="#43B649"/>
<path d="M507.295 258.916V263.886H506.354V261.992H496.715V263.649H495.539V259.389H496.715V260.809H506.354V258.916H507.295Z" fill="#F9F9F9"/>
<path d="M507.295 250.632V251.816H503.768L497.42 255.129C499.771 254.892 501.887 254.892 503.298 254.892H507.295V256.312H495.539V254.892L501.887 251.579C499.536 251.816 497.42 251.816 496.009 251.816H495.539V250.396H507.295V250.632Z" fill="#F9F9F9"/>
<path d="M507.295 246.846V248.266H495.539V245.663C495.539 244.716 495.774 243.769 496.48 243.296C496.95 242.823 497.89 242.586 498.831 242.586C499.771 242.586 500.711 242.823 501.182 243.533C501.652 244.006 502.122 244.953 502.122 245.899V247.083H507.295V246.846ZM500.947 246.846V245.663C500.947 244.953 500.712 244.716 500.476 244.243C500.241 244.006 499.536 243.769 498.831 243.769C498.125 243.769 497.655 244.006 497.185 244.243C496.95 244.479 496.715 244.953 496.715 245.663V246.846H500.947Z" fill="#F9F9F9"/>
<path d="M503.768 234.776C504.943 234.776 505.884 235.013 506.589 235.486C507.295 235.959 507.53 236.669 507.53 237.379C507.53 238.089 507.295 238.799 506.589 239.273C506.119 239.746 505.179 239.983 503.768 239.983H495.539V238.563H503.768C504.708 238.563 505.414 238.326 505.649 238.089C505.884 237.853 506.119 237.379 506.119 236.906C506.119 236.433 505.884 236.196 505.649 235.723C505.414 235.486 504.708 235.249 503.768 235.249H495.539V233.829H503.768V234.776Z" fill="#F9F9F9"/>
<path d="M496.715 226.73V229.096H507.295V230.516H496.715V232.883H495.539V226.73H496.715Z" fill="#F9F9F9"/>
<path d="M588.643 355.001V425.526" stroke="#F9F9F9" stroke-width="2.5" stroke-linecap="round" stroke-linejoin="round"/>
<path d="M582.059 356.894L588.642 345.771L595.225 356.894H582.059Z" fill="#F9F9F9"/>
<path d="M261.371 215.133H155.102V270.985H261.371V215.133Z" stroke="#43B649" stroke-width="2.5" stroke-miterlimit="10" stroke-linecap="round" stroke-linejoin="round"/>
<path d="M895.457 455.819L911.915 477.828L928.137 455.819L944.595 477.828L960.817 455.819L977.274 477.828L993.732 455.819L1009.95 477.828L1026.41 455.819L1042.63 477.828L1059.09 455.819L1075.55 477.828L1091.77 455.819L1108.23 477.828L1124.45 455.819L1140.91 477.828L1157.37 455.819L1173.59 477.828L1190.05 455.819L1206.5 477.828L1222.73 455.819L1239.18 477.828" stroke="#F9F9F9" stroke-width="2.5" stroke-miterlimit="10" stroke-linecap="round" stroke-linejoin="round"/>
<path d="M239.507 164.96H259.021" stroke="#F9F9F9" stroke-width="2.5" stroke-miterlimit="10" stroke-linecap="round" stroke-linejoin="round"/>
<path d="M248.205 174.9V155.257" stroke="#F9F9F9" stroke-width="2.5" stroke-miterlimit="10" stroke-linecap="round" stroke-linejoin="round"/>
<path d="M1227.2 244.716H1240.13" stroke="#EA4335" stroke-width="2.5" stroke-miterlimit="10" stroke-linecap="round" stroke-linejoin="round"/>
<path d="M1233.78 251.342V238.089" stroke="#EA4335" stroke-width="2.5" stroke-miterlimit="10" stroke-linecap="round" stroke-linejoin="round"/>
<path d="M16.1551 244.716H29.3211" stroke="#F9F9F9" stroke-width="2.5" stroke-miterlimit="10" stroke-linecap="round" stroke-linejoin="round"/>
<path d="M239.507 325.418H259.021" stroke="#F9F9F9" stroke-width="2.5" stroke-miterlimit="10" stroke-linecap="round" stroke-linejoin="round"/>
<path d="M248.205 335.358V315.715" stroke="#F9F9F9" stroke-width="2.5" stroke-miterlimit="10" stroke-linecap="round" stroke-linejoin="round"/>
<path d="M170.151 53.7292L713.25 185.787" stroke="#F9F9F9" stroke-width="2.5" stroke-miterlimit="10" stroke-linecap="round" stroke-linejoin="round"/>
<path d="M172.266 39.7662L713.249 180.344" stroke="#F9F9F9" stroke-width="2.5" stroke-miterlimit="10" stroke-linecap="round" stroke-linejoin="round"/>
<path d="M176.968 429.313H204.475L228.692 416.77H256.199L280.415 403.99L307.923 404.226L332.139 391.447L359.647 391.683L383.863 378.904L411.37 379.14L435.586 366.36H463.094L487.31 353.817H514.818L539.034 341.274H566.541L590.758 328.731H618.265L642.481 316.188H669.989L694.205 303.408L721.713 303.645" stroke="#F9F9F9" stroke-width="2.5" stroke-miterlimit="10" stroke-linecap="round" stroke-linejoin="round"/>
<path d="M32.7532 257.105C39.815 251.555 41.07 241.293 35.5564 234.185C30.0428 227.076 19.8484 225.813 12.7866 231.363C5.72477 236.913 4.46971 247.175 9.98332 254.283C15.4969 261.392 25.6913 262.655 32.7532 257.105Z" stroke="#F9F9F9" stroke-width="2.5" stroke-miterlimit="10" stroke-linecap="round" stroke-linejoin="round"/>
<path d="M1250 244.243C1250 253.236 1242.71 260.572 1233.78 260.572C1224.84 260.572 1217.56 253.236 1217.56 244.243C1217.56 235.249 1224.84 227.913 1233.78 227.913C1242.71 227.913 1250 235.249 1250 244.243Z" stroke="#F9F9F9" stroke-width="2.5" stroke-miterlimit="10" stroke-linecap="round" stroke-linejoin="round"/>
<path d="M530.101 243.059C530.101 281.872 498.832 313.348 460.274 313.348C421.717 313.348 390.447 281.872 390.447 243.059C390.447 204.247 421.717 172.771 460.274 172.771C498.832 172.771 530.101 204.247 530.101 243.059Z" stroke="#F9F9F9" stroke-width="2.5" stroke-miterlimit="10" stroke-linecap="round" stroke-linejoin="round"/>
<path d="M589.817 164.96V184.603" stroke="#4285F4" stroke-width="2.5" stroke-miterlimit="10" stroke-linecap="round" stroke-linejoin="round"/>
<path d="M589.817 300.331V319.974" stroke="#4285F4" stroke-width="2.5" stroke-miterlimit="10" stroke-linecap="round" stroke-linejoin="round"/>
<path d="M630.726 283.055L647.183 299.385" stroke="#4285F4" stroke-width="2.5" stroke-miterlimit="10" stroke-linecap="round" stroke-linejoin="round"/>
<path d="M646.948 185.787L630.726 202.117" stroke="#4285F4" stroke-width="2.5" stroke-miterlimit="10" stroke-linecap="round" stroke-linejoin="round"/>
<path d="M555.022 283.055L538.8 299.148" stroke="#4285F4" stroke-width="2.5" stroke-miterlimit="10" stroke-linecap="round" stroke-linejoin="round"/>
<path d="M538.8 185.787L555.022 202.116" stroke="#4285F4" stroke-width="2.5" stroke-miterlimit="10" stroke-linecap="round" stroke-linejoin="round"/>
<path d="M1194.28 244.006C1194.28 282.582 1163.25 313.821 1124.92 313.821C1086.6 313.821 1055.57 282.582 1055.57 244.006C1055.57 205.43 1086.6 174.191 1124.92 174.191C1163.25 174.427 1194.28 205.667 1194.28 244.006Z" stroke="#EA4335" stroke-width="2.5" stroke-miterlimit="10" stroke-linecap="round" stroke-linejoin="round"/>
<path d="M25.5587 142.714H8.63092V9H25.5587" stroke="#F9F9F9" stroke-width="2.5" stroke-miterlimit="10" stroke-linecap="round" stroke-linejoin="round"/>
<path d="M25.5587 479.248H8.63092V345.771H25.5587" stroke="#F9F9F9" stroke-width="2.5" stroke-miterlimit="10" stroke-linecap="round" stroke-linejoin="round"/>
<path d="M819.517 23.2H867.244" stroke="#F9F9F9" stroke-width="2.5" stroke-miterlimit="10" stroke-linecap="round"/>
<path d="M819.517 32.903H851.021" stroke="#F9F9F9" stroke-width="2.5" stroke-miterlimit="10" stroke-linecap="round"/>
<path d="M819.517 42.843H867.244" stroke="#F9F9F9" stroke-width="2.5" stroke-miterlimit="10" stroke-linecap="round"/>
<path d="M819.517 52.5459H839.031" stroke="#F9F9F9" stroke-width="2.5" stroke-miterlimit="10" stroke-linecap="round"/>
<path d="M944.359 23.1998H991.851" stroke="#F9F9F9" stroke-width="2.5" stroke-miterlimit="10" stroke-linecap="round"/>
<path d="M944.359 32.903H991.851" stroke="#F9F9F9" stroke-width="2.5" stroke-miterlimit="10" stroke-linecap="round"/>
<path d="M944.359 42.8427H991.851" stroke="#F9F9F9" stroke-width="2.5" stroke-miterlimit="10" stroke-linecap="round"/>
<path d="M944.359 52.5459H978.92" stroke="#F9F9F9" stroke-width="2.5" stroke-miterlimit="10" stroke-linecap="round"/>
<path d="M112.078 244.716C112.078 284.002 103.849 315.715 93.7398 315.715C83.6302 315.715 75.4014 284.002 75.4014 244.716C75.4014 205.43 83.6302 173.717 93.7398 173.717C103.849 173.717 112.078 205.43 112.078 244.716Z" stroke="#F9F9F9" stroke-width="2.5" stroke-miterlimit="10" stroke-linecap="round"/>
<path d="M38.9605 44.0261H54.0074L36.8445 65.799H54.0074L36.8445 88.7553H54.0074L37.0796 109.345" stroke="#4285F4" stroke-width="2.5" stroke-miterlimit="10" stroke-linecap="round"/>
<path d="M38.959 379.614H45.5421C49.0687 379.614 50.9495 383.637 48.8336 386.477L42.2506 394.76C40.1346 397.6 42.0154 401.623 45.5421 401.623H45.7772C49.3038 401.623 51.1846 405.646 49.0687 408.25L42.0154 417.716C39.8995 420.556 42.0154 424.343 45.307 424.343C48.8336 424.343 50.7144 428.366 48.5985 431.206L37.0782 445.169" stroke="#4285F4" stroke-width="2.5" stroke-miterlimit="10" stroke-linecap="round"/>
<path d="M84.5714 156.441H105.026" stroke="#EA4335" stroke-width="2.5" stroke-miterlimit="10" stroke-linecap="round"/>
<path d="M119.131 156.441H139.82" stroke="#EA4335" stroke-width="2.5" stroke-miterlimit="10" stroke-linecap="round"/>
<path d="M153.929 156.441H174.618" stroke="#EA4335" stroke-width="2.5" stroke-miterlimit="10" stroke-linecap="round"/>
<path d="M188.724 156.441H209.178" stroke="#EA4335" stroke-width="2.5" stroke-miterlimit="10" stroke-linecap="round"/>
<path d="M84.5714 143.188H105.026" stroke="#EA4335" stroke-width="2.5" stroke-miterlimit="10" stroke-linecap="round"/>
<path d="M119.131 143.188H139.82" stroke="#EA4335" stroke-width="2.5" stroke-miterlimit="10" stroke-linecap="round"/>
<path d="M153.929 143.188H174.618" stroke="#EA4335" stroke-width="2.5" stroke-miterlimit="10" stroke-linecap="round"/>
<path d="M188.724 143.188H209.178" stroke="#EA4335" stroke-width="2.5" stroke-miterlimit="10" stroke-linecap="round"/>
<path d="M84.5714 130.171H105.026" stroke="#F9F9F9" stroke-width="2.5" stroke-miterlimit="10" stroke-linecap="round"/>
<path d="M119.131 130.171H139.82" stroke="#EA4335" stroke-width="2.5" stroke-miterlimit="10" stroke-linecap="round"/>
<path d="M153.929 130.171H174.618" stroke="#F9F9F9" stroke-width="2.5" stroke-miterlimit="10" stroke-linecap="round"/>
<path d="M188.724 130.171H209.178" stroke="#EA4335" stroke-width="2.5" stroke-miterlimit="10" stroke-linecap="round"/>
<path d="M84.5714 117.155H105.026" stroke="#F9F9F9" stroke-width="2.5" stroke-miterlimit="10" stroke-linecap="round"/>
<path d="M119.131 117.155H139.82" stroke="#EA4335" stroke-width="2.5" stroke-miterlimit="10" stroke-linecap="round"/>
<path d="M153.929 117.155H174.618" stroke="#F9F9F9" stroke-width="2.5" stroke-miterlimit="10" stroke-linecap="round"/>
<path d="M188.724 117.155H209.178" stroke="#EA4335" stroke-width="2.5" stroke-miterlimit="10" stroke-linecap="round"/>
<path d="M84.5714 103.902H105.026" stroke="#F9F9F9" stroke-width="2.5" stroke-miterlimit="10" stroke-linecap="round"/>
<path d="M119.131 103.902H139.82" stroke="#F9F9F9" stroke-width="2.5" stroke-miterlimit="10" stroke-linecap="round"/>
<path d="M153.929 103.902H174.618" stroke="#F9F9F9" stroke-width="2.5" stroke-miterlimit="10" stroke-linecap="round"/>
<path d="M188.724 103.902H209.178" stroke="#EA4335" stroke-width="2.5" stroke-miterlimit="10" stroke-linecap="round"/>
<path d="M93.2697 299.385V335.358" stroke="#F9F9F9" stroke-width="2.5" stroke-miterlimit="10" stroke-linecap="round"/>
<path d="M896.635 77.8688V65.799H908.39" stroke="#EA4335" stroke-width="2.5" stroke-miterlimit="10" stroke-linecap="round" stroke-linejoin="round"/>
<path d="M896.635 114.788V102.955H908.39" stroke="#EA4335" stroke-width="2.5" stroke-miterlimit="10" stroke-linecap="round" stroke-linejoin="round"/>
<path d="M896.635 395.233V407.303H908.39" stroke="#F9F9F9" stroke-width="2.5" stroke-miterlimit="10" stroke-linecap="round" stroke-linejoin="round"/>
<path d="M896.635 358.314V370.147H908.39" stroke="#F9F9F9" stroke-width="2.5" stroke-miterlimit="10" stroke-linecap="round" stroke-linejoin="round"/>
<path d="M711.133 23.2H721.948" stroke="#F9F9F9" stroke-width="2.5" stroke-miterlimit="10" stroke-linecap="round" stroke-linejoin="round"/>
<path d="M711.133 151.944H721.948" stroke="#F9F9F9" stroke-width="2.5" stroke-miterlimit="10" stroke-linecap="round" stroke-linejoin="round"/>
<path d="M711.133 280.688H721.948" stroke="#F9F9F9" stroke-width="2.5" stroke-miterlimit="10" stroke-linecap="round" stroke-linejoin="round"/>
<path d="M332.844 280.688H343.659" stroke="#F9F9F9" stroke-width="2.5" stroke-miterlimit="10" stroke-linecap="round" stroke-linejoin="round"/>
<path d="M338.252 291.575H349.067" stroke="#EA4335" stroke-width="2.5" stroke-miterlimit="10" stroke-linecap="round" stroke-linejoin="round"/>
<path d="M332.844 302.461H343.659" stroke="#F9F9F9" stroke-width="2.5" stroke-miterlimit="10" stroke-linecap="round" stroke-linejoin="round"/>
<path d="M325.321 313.585H336.136" stroke="#EA4335" stroke-width="2.5" stroke-miterlimit="10" stroke-linecap="round" stroke-linejoin="round"/>
<path d="M324.146 324.471H334.961" stroke="#F9F9F9" stroke-width="2.5" stroke-miterlimit="10" stroke-linecap="round" stroke-linejoin="round"/>
<path d="M379.397 324.471H390.212" stroke="#F9F9F9" stroke-width="2.5" stroke-miterlimit="10" stroke-linecap="round" stroke-linejoin="round"/>
<path d="M349.067 353.817H359.882" stroke="#F9F9F9" stroke-width="2.5" stroke-miterlimit="10" stroke-linecap="round" stroke-linejoin="round"/>
<path d="M149.694 353.817H160.509" stroke="#EA4335" stroke-width="2.5" stroke-miterlimit="10" stroke-linecap="round" stroke-linejoin="round"/>
<path d="M168.034 353.817H178.849" stroke="#EA4335" stroke-width="2.5" stroke-miterlimit="10" stroke-linecap="round" stroke-linejoin="round"/>
<path d="M168.034 364.704H178.849" stroke="#EA4335" stroke-width="2.5" stroke-miterlimit="10" stroke-linecap="round" stroke-linejoin="round"/>
<path d="M173.442 375.59H184.257" stroke="#EA4335" stroke-width="2.5" stroke-miterlimit="10" stroke-linecap="round" stroke-linejoin="round"/>
<path d="M168.034 386.713H178.849" stroke="#EA4335" stroke-width="2.5" stroke-miterlimit="10" stroke-linecap="round" stroke-linejoin="round"/>
<path d="M186.372 353.817H197.187" stroke="#EA4335" stroke-width="2.5" stroke-miterlimit="10" stroke-linecap="round" stroke-linejoin="round"/>
<path d="M186.372 292.758H197.187" stroke="#F9F9F9" stroke-width="2.5" stroke-miterlimit="10" stroke-linecap="round" stroke-linejoin="round"/>
<path d="M166.859 292.758H177.674" stroke="#F9F9F9" stroke-width="2.5" stroke-miterlimit="10" stroke-linecap="round" stroke-linejoin="round"/>
<path d="M711.133 409.433H721.948" stroke="#F9F9F9" stroke-width="2.5" stroke-miterlimit="10" stroke-linecap="round" stroke-linejoin="round"/>
<path d="M291.7 31.9562H307.923" stroke="#F9F9F9" stroke-width="2.5" stroke-miterlimit="10" stroke-linecap="round" stroke-linejoin="round"/>
<path d="M291.7 23.1998H307.923" stroke="#F9F9F9" stroke-width="2.5" stroke-miterlimit="10" stroke-linecap="round" stroke-linejoin="round"/>
<path d="M823.045 393.103V416.059" stroke="#F9F9F9" stroke-width="2.5" stroke-miterlimit="10" stroke-linecap="round" stroke-linejoin="round"/>
<path d="M823.045 456.056V479.012" stroke="#F9F9F9" stroke-width="2.5" stroke-miterlimit="10" stroke-linecap="round" stroke-linejoin="round"/>
<path d="M839.032 479.248V393.103" stroke="#F9F9F9" stroke-width="2.5" stroke-miterlimit="10" stroke-linecap="round" stroke-linejoin="round"/>
<path d="M661.054 84.9687C640.365 69.5857 615.443 62.2491 588.406 62.2491C561.369 62.2491 536.447 69.5857 515.758 84.9687" stroke="#F9F9F9" stroke-width="2.5" stroke-miterlimit="10" stroke-linecap="round" stroke-linejoin="round"/>
<path d="M867.244 269.802V304.592C867.244 310.745 862.542 315.715 856.429 315.715C850.316 315.715 845.614 310.745 845.614 304.592V269.802" stroke="#4285F4" stroke-width="2.5" stroke-miterlimit="10" stroke-linecap="round" stroke-linejoin="round"/>
<path d="M867.244 269.802V235.013C867.244 228.86 871.946 223.89 878.059 223.89C884.172 223.89 888.874 228.86 888.874 235.013V269.565H910.504V234.776C910.504 228.623 915.206 223.653 921.319 223.653C927.432 223.653 932.134 228.623 932.134 234.776V269.329H989.5" stroke="#4285F4" stroke-width="2.5" stroke-miterlimit="10" stroke-linecap="round" stroke-linejoin="round"/>
<path d="M690.679 479.248V429.076H727.591C728.296 429.076 728.531 429.313 729.236 429.313C749.691 428.603 765.443 411.8 765.443 391.21V362.574V316.898H785.897C799.063 316.898 805.646 316.898 805.882 312.165L805.646 310.035L760.506 149.814L761.446 153.128C748.28 99.6418 711.838 55.3859 662.936 32.4296C639.425 20.8332 613.563 14.9166 586.056 14.9166C486.135 14.9166 405.493 96.8018 405.258 197.383C405.258 247.556 420.775 309.561 492.248 328.731C499.536 330.624 503.768 338.671 502.122 346.007L478.611 479.485" stroke="#EA4335" stroke-width="2.5" stroke-miterlimit="10" stroke-linecap="round"/>
<path d="M1011.83 244.243H819.517" stroke="#43B649" stroke-width="2.5" stroke-linecap="round" stroke-linejoin="round"/>
<path d="M1009.95 237.616L1021.24 244.243L1009.95 250.632V237.616Z" fill="#43B649"/>
<path d="M1095.06 418.19V388.843" stroke="#F9F9F9" stroke-width="2.5" stroke-miterlimit="10" stroke-linecap="round" stroke-linejoin="round"/>
<path d="M1115.52 418.19V388.843" stroke="#F9F9F9" stroke-width="2.5" stroke-miterlimit="10" stroke-linecap="round" stroke-linejoin="round"/>
<path d="M1136.21 419.373V389.79" stroke="#F9F9F9" stroke-width="2.5" stroke-miterlimit="10" stroke-linecap="round" stroke-linejoin="round"/>
<path d="M1156.66 419.373V389.79" stroke="#F9F9F9" stroke-width="2.5" stroke-miterlimit="10" stroke-linecap="round" stroke-linejoin="round"/>
<path d="M1086.36 409.433H1167.48" stroke="#F9F9F9" stroke-width="2.5" stroke-miterlimit="10" stroke-linecap="round" stroke-linejoin="round"/>
<path d="M571.244 248.029C574.231 248.029 576.652 245.592 576.652 242.586C576.652 239.58 574.231 237.143 571.244 237.143C568.258 237.143 565.837 239.58 565.837 242.586C565.837 245.592 568.258 248.029 571.244 248.029Z" stroke="#F9F9F9" stroke-width="2.5" stroke-miterlimit="10" stroke-linecap="round" stroke-linejoin="round"/>
<path d="M581.119 267.672C584.106 267.672 586.527 265.235 586.527 262.229C586.527 259.223 584.106 256.786 581.119 256.786C578.133 256.786 575.712 259.223 575.712 262.229C575.712 265.235 578.133 267.672 581.119 267.672Z" stroke="#F9F9F9" stroke-width="2.5" stroke-miterlimit="10" stroke-linecap="round" stroke-linejoin="round"/>
<path d="M600.632 267.672C603.619 267.672 606.04 265.235 606.04 262.229C606.04 259.223 603.619 256.786 600.632 256.786C597.646 256.786 595.225 259.223 595.225 262.229C595.225 265.235 597.646 267.672 600.632 267.672Z" stroke="#F9F9F9" stroke-width="2.5" stroke-miterlimit="10" stroke-linecap="round" stroke-linejoin="round"/>
<path d="M581.119 229.333C584.106 229.333 586.527 226.896 586.527 223.89C586.527 220.883 584.106 218.446 581.119 218.446C578.133 218.446 575.712 220.883 575.712 223.89C575.712 226.896 578.133 229.333 581.119 229.333Z" stroke="#F9F9F9" stroke-width="2.5" stroke-miterlimit="10" stroke-linecap="round" stroke-linejoin="round"/>
<path d="M600.632 229.333C603.619 229.333 606.04 226.896 606.04 223.89C606.04 220.883 603.619 218.446 600.632 218.446C597.646 218.446 595.225 220.883 595.225 223.89C595.225 226.896 597.646 229.333 600.632 229.333Z" stroke="#F9F9F9" stroke-width="2.5" stroke-miterlimit="10" stroke-linecap="round" stroke-linejoin="round"/>
<path d="M590.757 248.029C593.744 248.029 596.165 245.592 596.165 242.586C596.165 239.58 593.744 237.143 590.757 237.143C587.771 237.143 585.35 239.58 585.35 242.586C585.35 245.592 587.771 248.029 590.757 248.029Z" stroke="#F9F9F9" stroke-width="2.5" stroke-miterlimit="10" stroke-linecap="round" stroke-linejoin="round"/>
<path d="M610.273 248.029C613.259 248.029 615.68 245.592 615.68 242.586C615.68 239.58 613.259 237.143 610.273 237.143C607.286 237.143 604.865 239.58 604.865 242.586C604.865 245.592 607.286 248.029 610.273 248.029Z" stroke="#F9F9F9" stroke-width="2.5" stroke-miterlimit="10" stroke-linecap="round" stroke-linejoin="round"/>
<path d="M583.236 228.859L588.408 237.616" stroke="#F9F9F9" stroke-width="2.5" stroke-miterlimit="10" stroke-linecap="round" stroke-linejoin="round"/>
<path d="M593.107 247.556L598.28 256.076" stroke="#F9F9F9" stroke-width="2.5" stroke-miterlimit="10" stroke-linecap="round" stroke-linejoin="round"/>
<path d="M598.28 228.859L593.107 237.616" stroke="#F9F9F9" stroke-width="2.5" stroke-miterlimit="10" stroke-linecap="round" stroke-linejoin="round"/>
<path d="M588.408 247.556L583.236 256.076" stroke="#F9F9F9" stroke-width="2.5" stroke-miterlimit="10" stroke-linecap="round" stroke-linejoin="round"/>
<path d="M576.651 242.586H585.35" stroke="#F9F9F9" stroke-width="2.5" stroke-miterlimit="10" stroke-linecap="round" stroke-linejoin="round"/>
<path d="M596.165 242.586H604.864" stroke="#F9F9F9" stroke-width="2.5" stroke-miterlimit="10" stroke-linecap="round" stroke-linejoin="round"/>
</svg>
