<svg width="538" height="401" viewBox="0 0 538 401" fill="none" xmlns="http://www.w3.org/2000/svg">
<style>
:root { --illustration-ink: #212121; --illustration-star: #333333; }
@media (prefers-color-scheme: dark) {
  :root { --illustration-ink: #F9F9F9; --illustration-star: #F9F9F9; }
}
</style>
<path d="M224.154 143.574C230.254 143.574 236.207 144.187 241.955 145.351C240.919 145.804 239.892 146.277 238.875 146.772C238.853 146.782 238.832 146.792 238.811 146.802C234.048 145.996 229.152 145.574 224.154 145.574C210.965 145.574 198.532 148.401 187.293 153.841L187.277 153.849C163.836 164.689 146.347 185.495 140.055 210.659L140.053 210.666L140.01 210.655L118.566 285.278L118.482 286.143C118.503 286.388 118.587 286.516 118.738 286.632C118.957 286.8 119.371 286.974 120.113 287.104C121.604 287.364 123.876 287.368 127.104 287.368H137.979V323.706C137.979 332.985 145.213 340.537 154.534 340.842H174.272V371.087C174.272 371.639 173.825 372.087 173.272 372.087C172.72 372.087 172.272 371.639 172.272 371.087V342.842H154.492C144.073 342.513 135.979 334.064 135.979 323.706V289.368H127.104C123.965 289.368 121.474 289.372 119.769 289.073C118.914 288.924 118.121 288.679 117.521 288.219C116.863 287.715 116.517 287.014 116.479 286.178L116.477 286.108L116.483 286.037L116.583 284.998L116.592 284.906L116.617 284.818L138.524 208.582L138.53 208.583C145.3 183.537 162.953 162.894 186.438 152.033C197.954 146.462 210.681 143.574 224.154 143.574Z" fill="var(--illustration-ink)"/>
<path d="M286.522 370.538V345.094H267.269C266.892 345.094 266.784 345.094 266.353 345.094C255.729 344.763 247.478 336.263 247.478 325.832V288.301H236.853C230.004 288.301 226.607 288.3 226.499 285.927L226.607 284.823L250.174 203.855L249.742 205.511C256.591 178.466 275.628 156.113 301.137 144.467C313.379 138.617 326.915 135.581 341.26 135.581C393.356 135.581 435.367 176.976 435.582 227.809C435.582 253.253 427.493 284.547 390.174 294.151C386.453 295.089 384.134 299.173 384.997 302.871L397.293 370.372" stroke="var(--illustration-ink)" stroke-width="2" stroke-miterlimit="10" stroke-linecap="round"/>
<path d="M279.9 136.39C265.588 136.39 252.07 139.418 239.837 145.261H239.836C214.889 156.651 196.132 178.301 188.939 204.576L188.932 204.575L165.645 284.584L165.619 284.673L165.61 284.766L165.503 285.857L165.497 285.928L165.5 285.999C165.539 286.868 165.903 287.589 166.586 288.107C167.212 288.581 168.042 288.835 168.946 288.991C170.75 289.303 173.39 289.299 176.73 289.299H186.228V325.386C186.228 336.241 194.818 345.075 205.848 345.419L205.864 345.42H224.81V371.581C224.81 372.133 225.258 372.581 225.81 372.581C226.362 372.581 226.81 372.133 226.81 371.581V343.42H205.911C195.945 343.11 188.228 335.146 188.228 325.386V287.299H176.73C173.303 287.299 170.879 287.296 169.287 287.021C168.493 286.884 168.04 286.698 167.794 286.513C167.619 286.38 167.525 286.232 167.502 285.964L167.591 285.053L190.388 206.731L190.434 206.743L190.436 206.737L190.758 205.501C197.71 179.635 216.119 158.288 240.667 147.08L240.683 147.073C252.64 141.358 265.868 138.39 279.9 138.39C287.874 138.39 295.606 139.381 302.976 141.244C304.145 140.849 305.323 140.478 306.511 140.13C298.077 137.696 289.147 136.39 279.9 136.39Z" fill="var(--illustration-ink)"/>
<path d="M274.499 224.581C274.499 232.762 280.993 239.465 289.042 239.465C297.091 239.465 303.585 232.819 303.585 224.581" stroke="var(--illustration-ink)" stroke-width="2" stroke-linecap="round" stroke-linejoin="round"/>
<path d="M412.354 289.119C456.8 325.681 480.941 356.597 472.928 371.438L472.755 371.746C465.674 383.977 437.21 382.698 396.204 370.673L395.801 368.462C415.602 374.32 432.406 377.659 445.261 378.225C452.369 378.539 458.158 377.998 462.541 376.64C466.912 375.286 469.717 373.177 471.186 370.456C472.655 367.735 472.905 364.186 471.694 359.685C470.48 355.174 467.839 349.883 463.788 343.907C455.69 331.962 442.216 317.656 424.333 301.916C420.037 298.134 415.491 294.274 410.709 290.348C411.269 289.946 411.818 289.536 412.354 289.119ZM24.48 118.705C35.2503 98.7549 101.053 113.517 185.577 151.638C184.848 152.036 184.124 152.443 183.408 152.859C155.778 140.451 130.2 130.57 107.958 123.614C85.3868 116.556 66.3548 112.543 52.146 111.917C45.0384 111.604 39.2498 112.143 34.8677 113.501C30.496 114.855 27.6912 116.965 26.2222 119.686C24.7532 122.407 24.5036 125.956 25.7144 130.457C26.9281 134.968 29.5685 140.259 33.6196 146.235C41.7177 158.18 55.1914 172.487 73.0747 188.227C89.5483 202.727 109.694 218.382 132.681 234.46L132.092 236.483C59.1379 185.532 14.4525 138.668 24.3169 119.018L24.48 118.705Z" fill="#43B649"/>
<path d="M127.439 357.174L136.964 362.477L127.439 367.821L122.229 377.532L117.018 367.821L107.494 362.477L117.018 357.174L122.229 347.422L127.439 357.174Z" stroke="var(--illustration-star)" stroke-width="1.8" stroke-miterlimit="10"/>
<path d="M431.108 199.179C489.232 243.062 522.761 281.561 513.52 298.679L513.347 298.987C504.643 314.02 463.64 308.644 406.749 287.992C407.493 287.556 408.219 287.106 408.928 286.646C416.249 289.281 423.299 291.661 430.043 293.77C452.613 300.828 471.644 304.84 485.853 305.466C492.961 305.779 498.751 305.239 503.133 303.881C507.504 302.527 510.308 300.417 511.777 297.697C513.246 294.976 513.497 291.426 512.286 286.926C511.072 282.415 508.431 277.123 504.38 271.148C496.282 259.203 482.808 244.897 464.925 229.156C455.21 220.606 444.218 211.653 432.119 202.448C431.802 201.35 431.465 200.26 431.108 199.179ZM65.0713 45.9456C79.4197 19.3678 191.44 54.3985 315.275 124.189L318.171 125.826C323.326 128.75 328.419 131.688 333.445 134.635C332.291 134.715 331.142 134.815 329.999 134.935C324.843 131.928 319.617 128.93 314.326 125.948C252.493 91.1007 193.658 64.9613 148.549 50.8547C125.978 43.7965 106.947 39.7838 92.7383 39.1575C85.6306 38.8442 79.8422 39.3849 75.46 40.7424C71.0885 42.0968 68.2835 44.2062 66.8145 46.927C65.3455 49.648 65.095 53.197 66.3057 57.6975C67.5194 62.209 70.1598 67.5001 74.2109 73.4758C82.3089 85.4211 95.7827 99.7275 113.666 115.468C129.048 129.007 147.633 143.553 168.742 158.511C168.23 158.962 167.724 159.419 167.222 159.881C97.5112 110.429 55.2924 65.4131 64.9082 46.259L65.0713 45.9456Z" fill="var(--illustration-ink)"/>
<path d="M433.486 249.296C433.325 250.016 433.156 250.736 432.974 251.454C437.766 255.388 442.322 259.256 446.627 263.046C464.511 278.786 477.985 293.093 486.083 305.038C490.133 311.013 492.775 316.304 493.989 320.815C495.2 325.316 494.949 328.866 493.48 331.587C492.011 334.307 489.207 336.417 484.835 337.771C480.453 339.129 474.663 339.668 467.555 339.355C453.347 338.729 434.316 334.717 411.746 327.659C404.273 325.322 396.424 322.653 388.247 319.671L388.664 321.958C445.444 342.546 486.356 347.891 495.049 332.877L495.222 332.568C503.304 317.597 478.673 286.273 433.486 249.296ZM259.984 138.063C151.556 81.8526 59.6778 55.9361 46.7749 79.8347L46.6108 80.1481C37.1768 98.9401 77.6369 142.625 145.001 190.97C145.274 190.348 145.552 189.729 145.837 189.113C126.625 175.312 109.623 161.902 95.3696 149.357C77.4862 133.617 64.0116 119.31 55.9136 107.365C51.8626 101.389 49.222 96.0981 48.0083 91.5866C46.7977 87.0863 47.0482 83.538 48.5171 80.8171C49.9861 78.0961 52.7908 75.986 57.1626 74.6315C61.5448 73.2739 67.3332 72.7333 74.4409 73.0466C88.6497 73.6728 107.681 77.6866 130.251 84.7448C164.588 95.4824 206.876 113.191 252.386 136.406C254.819 136.909 257.217 137.5 259.577 138.18C259.712 138.141 259.848 138.102 259.984 138.063Z" fill="#D3D3D3"/>
<path d="M272.142 33.3926C284.654 26.6768 300.112 31.5514 306.663 44.3015C313.213 57.0516 308.364 72.8263 295.852 79.5421C283.34 86.2579 267.882 81.3832 261.332 68.6332C254.781 55.8831 259.63 40.1085 272.142 33.3926Z" stroke="black" stroke-width="1.8"/>
<path d="M289.232 46.9858C291.078 46.7819 292.864 47.3401 294.257 48.5864L294.258 48.5874C295.632 49.8127 296.534 51.626 296.768 53.7192V53.7202C296.996 55.8159 296.454 57.8727 294.949 60.2358L294.948 60.2368C293.583 62.3844 291.496 64.6343 288.979 67.3823C288.132 68.3061 287.164 69.354 286.168 70.4585L286.162 70.4663C286.045 70.5987 285.888 70.6751 285.751 70.6851L285.719 70.687L285.687 70.6919C285.595 70.7054 285.49 70.695 285.359 70.6313L285.218 70.5493C284.001 69.6813 282.839 68.8697 281.817 68.1733C278.791 66.0726 276.263 64.3271 274.462 62.5425L274.459 62.5396L274.1 62.1753C272.479 60.4806 271.627 58.8047 271.346 56.9878L271.294 56.5962C271.089 54.5038 271.585 52.5284 272.661 51.0181L272.662 51.019C273.76 49.4884 275.372 48.55 277.214 48.3462C278.593 48.1952 279.865 48.4929 281.088 49.2583L281.095 49.2622C281.713 49.6412 282.271 50.1294 282.822 50.7456L283.673 51.6997L284.284 50.5767C284.672 49.8627 285.129 49.2426 285.651 48.7349L285.659 48.7271C286.616 47.7724 287.732 47.2098 288.981 47.019L289.232 46.9858Z" stroke="black" stroke-width="1.8"/>
<path d="M480.878 188.248L489.177 192.868L480.878 197.525L476.339 205.985L471.799 197.525L463.5 192.868L471.799 188.248L476.339 179.75L480.878 188.248Z" stroke="var(--illustration-star)" stroke-width="1.8" stroke-miterlimit="10"/>
<path d="M81.6954 206.941L82.4138 216.412L73.9544 212.053L64.3928 212.928L68.9507 204.477L68.2632 194.986L76.6916 199.365L86.2842 198.47L81.6954 206.941Z" stroke="var(--illustration-star)" stroke-width="1.8" stroke-miterlimit="10"/>
</svg>
