<svg width="296" height="63" viewBox="0 0 296 63" fill="none" xmlns="http://www.w3.org/2000/svg">
<path d="M29.8966 29.3686C32.2307 29.3686 34.1231 27.4952 34.1231 25.1842C34.1231 22.8734 32.2307 21 29.8966 21C27.5623 21 25.6699 22.8734 25.6699 25.1842C25.6699 27.4952 27.5623 29.3686 29.8966 29.3686Z" fill="black" fill-opacity="0.95" stroke="black" stroke-width="3"/>
<path d="M22.2891 44.0157C24.6233 44.0157 26.5156 42.1424 26.5156 39.8315C26.5156 37.5207 24.6233 35.6472 22.2891 35.6472C19.9549 35.6472 18.0625 37.5207 18.0625 39.8315C18.0625 42.1424 19.9549 44.0157 22.2891 44.0157Z" fill="black" stroke="black" stroke-width="3"/>
<path d="M38.7734 44.0157C41.1077 44.0157 42.9999 42.1424 42.9999 39.8315C42.9999 37.5207 41.1077 35.6472 38.7734 35.6472C36.4391 35.6472 34.5469 37.5207 34.5469 39.8315C34.5469 42.1424 36.4391 44.0157 38.7734 44.0157Z" fill="black" stroke="black" stroke-width="3"/>
<path d="M29.8966 59.0816C32.2307 59.0816 34.1231 57.2083 34.1231 54.8974C34.1231 52.5864 32.2307 50.7131 29.8966 50.7131C27.5623 50.7131 25.6699 52.5864 25.6699 54.8974C25.6699 57.2083 27.5623 59.0816 29.8966 59.0816Z" fill="black" stroke="black" stroke-width="3"/>
<path d="M14.2578 59.5C16.5921 59.5 18.4843 57.6266 18.4843 55.3158C18.4843 53.0049 16.5921 51.1314 14.2578 51.1314C11.9235 51.1314 10.0312 53.0049 10.0312 55.3158C10.0312 57.6266 11.9235 59.5 14.2578 59.5Z" fill="black" stroke="black" stroke-width="3"/>
<path d="M6.22653 44.0157C8.56077 44.0157 10.4531 42.1424 10.4531 39.8315C10.4531 37.5207 8.56077 35.6472 6.22653 35.6472C3.89228 35.6472 2 37.5207 2 39.8315C2 42.1424 3.89228 44.0157 6.22653 44.0157Z" fill="black" stroke="black" stroke-width="3"/>
<path d="M14.2578 29.3686C16.5921 29.3686 18.4843 27.4952 18.4843 25.1842C18.4843 22.8734 16.5921 21 14.2578 21C11.9235 21 10.0312 22.8734 10.0312 25.1842C10.0312 27.4952 11.9235 29.3686 14.2578 29.3686Z" fill="black" stroke="black" stroke-width="3"/>
<path d="M28.1464 29.1635L23.9199 36.2768" stroke="black" stroke-width="3"/>
<path d="M20.1231 43.8016L15.8965 51.3335" stroke="black" stroke-width="3"/>
<path d="M34.9697 39.832H26.5166" stroke="black" stroke-width="3"/>
<path d="M18.4853 39.832H10.0322" stroke="black" stroke-width="3"/>
<path d="M15.8955 28.7448L20.0104 35.9219" stroke="black" stroke-width="3"/>
<path d="M23.9268 43.8105L28.0417 50.9877" stroke="black" stroke-width="3"/>
<path d="M97.0507 62.2125H90.9661V27.3656C90.9661 23.4281 89.9651 21.4594 87.9632 21.4594C85.9877 21.4594 84.3809 22.9819 83.1429 26.0269V62.2125H77.0582V27.3656C77.0055 23.4281 76.11 21.4594 74.3715 21.4594C72.3433 21.4594 70.6311 22.9819 69.2351 26.0269V62.2125H63.1504V16.065H69.2351V20.5931C71.2896 16.9969 73.6998 15.1988 76.4656 15.1988C79.3367 15.1988 81.3122 16.9969 82.3922 20.5931C84.3941 16.9969 86.8438 15.1988 89.7412 15.1988C94.6142 15.1988 97.0507 19.1494 97.0507 27.0506V62.2125Z" fill="black"/>
<path d="M133.541 62.2125H126.587V57.015C123.637 61.005 119.91 63 115.406 63C111.639 63 108.584 61.7138 106.239 59.1413C103.921 56.5425 102.762 53.2875 102.762 49.3763C102.762 45.36 104.211 42 107.109 39.2962C110.032 36.5662 114.313 35.2013 119.95 35.2013H126.587V30.2006C126.587 24.3994 123.822 21.4988 118.29 21.4988C114.207 21.4988 111.152 23.2969 109.124 26.8931L103.869 22.9556C107.504 17.7844 112.324 15.1988 118.33 15.1988C122.781 15.1988 126.429 16.4719 129.274 19.0181C132.119 21.5381 133.541 25.2656 133.541 30.2006V62.2125ZM126.587 51.3844V40.7925H119.95C116.631 40.7925 114.128 41.5669 112.443 43.1156C110.757 44.6644 109.914 46.7513 109.914 49.3763C109.914 54.2588 112.324 56.7 117.144 56.7C120.937 56.7 124.085 54.9281 126.587 51.3844Z" fill="black"/>
<path d="M176.946 23.8612L170.901 26.5387C169.558 23.1787 167.253 21.4988 163.987 21.4988C157.191 21.4988 153.793 27.8119 153.793 40.4381V62.2125H146.839V16.065H153.793V23.4675C156.533 17.955 160.299 15.1988 165.093 15.1988C170.651 15.1988 174.602 18.0862 176.946 23.8612Z" fill="black"/>
<path d="M215.847 62.2125H208.893C208.683 58.8263 207.01 54.8756 203.876 50.3606L196.961 40.4775L191.785 46.7775V62.2125H184.831V0H191.785V38.2331L202.018 25.6725C205.416 21.4988 207.168 18.2963 207.273 16.065H214.227L214.148 17.5613C213.99 20.0025 211.685 23.94 207.234 29.3738L201.663 36.1856L208.854 46.5806C213.253 52.9069 215.544 57.5794 215.729 60.5981L215.847 62.2125Z" fill="black"/>
<path d="M253.484 40.5169H229.264V41.895C229.264 47.8538 230.133 51.8175 231.871 53.7863C233.636 55.7288 236.007 56.7 238.983 56.7C242.803 56.7 245.845 54.7838 248.11 50.9513L253.76 54.5344C250.204 60.1781 245.134 63 238.549 63C233.807 63 229.909 61.32 226.853 57.96C223.824 54.5737 222.31 49.2188 222.31 41.895V36.3431C222.31 29.0194 223.824 23.6644 226.853 20.2781C229.909 16.8919 233.597 15.1988 237.917 15.1988C242.5 15.1988 246.24 16.7606 249.138 19.8844C252.035 23.0081 253.484 28.1006 253.484 35.1619V40.5169ZM246.53 34.4137C246.53 29.715 245.713 26.3944 244.08 24.4519C242.473 22.4831 240.419 21.4988 237.917 21.4988C235.52 21.4988 233.478 22.4831 231.792 24.4519C230.107 26.3944 229.264 29.715 229.264 34.4137H246.53Z" fill="black"/>
<path d="M295.15 55.755C291.91 60.585 287.577 63 282.151 63C278.569 63 275.553 61.7794 273.103 59.3381C270.654 56.8969 269.429 53.3006 269.429 48.5494V21.9713H261.645V16.065H269.429V0H276.383V16.065H292.029V21.9713H276.383V49.0219C276.383 51.5419 276.923 53.4581 278.003 54.7706C279.109 56.0569 280.624 56.7 282.546 56.7C285.786 56.7 288.236 55.1119 289.895 51.9356L295.15 55.755Z" fill="black"/>
</svg>
